<svg width="24" height="24" viewBox="0 0 24 24" fill="none" xmlns="http://www.w3.org/2000/svg">
<g clip-path="url(#clip0_58279_980)">
<path d="M6 5.99998H6.01M6 18H6.01M4 1.99998L20 1.99998C21.1046 1.99998 22 2.89542 22 3.99998V7.99998C22 9.10455 21.1046 9.99998 20 9.99998H4C2.89543 9.99998 2 9.10455 2 7.99998L2 3.99998C2 2.89542 2.89543 1.99998 4 1.99998ZM4 14H20C21.1046 14 22 14.8954 22 16V20C22 21.1046 21.1046 22 20 22H4C2.89543 22 2 21.1046 2 20V16C2 14.8954 2.89543 14 4 14Z" stroke="white" stroke-width="4" stroke-linecap="round" stroke-linejoin="round"/>
</g>
<defs>
<clipPath id="clip0_58279_980">
<rect width="24" height="24" fill="white"/>
</clipPath>
</defs>
</svg>
