<svg width="24" height="24" viewBox="0 0 24 24" fill="none" xmlns="http://www.w3.org/2000/svg">
<g clip-path="url(#clip0_58279_882)">
<path d="M14.7003 6.3C14.5171 6.48692 14.4145 6.73824 14.4145 7C14.4145 7.26175 14.5171 7.51307 14.7003 7.7L16.3003 9.3C16.4873 9.48322 16.7386 9.58585 17.0003 9.58585C17.2621 9.58585 17.5134 9.48322 17.7003 9.3L21.4703 5.53C21.9732 6.64118 22.1254 7.87923 21.9068 9.07914C21.6882 10.2791 21.1091 11.3838 20.2466 12.2463C19.3842 13.1087 18.2794 13.6878 17.0795 13.9065C15.8796 14.1251 14.6415 13.9728 13.5303 13.47L6.62034 20.38C6.22252 20.7778 5.68295 21.0013 5.12034 21.0013C4.55773 21.0013 4.01817 20.7778 3.62034 20.38C3.22252 19.9822 2.99902 19.4426 2.99902 18.88C2.99902 18.3174 3.22252 17.7778 3.62034 17.38L10.5303 10.47C10.0275 9.35881 9.87526 8.12076 10.0939 6.92085C10.3125 5.72094 10.8916 4.61615 11.7541 3.75372C12.6165 2.89128 13.7213 2.31216 14.9212 2.09354C16.1211 1.87491 17.3592 2.02716 18.4703 2.52999L14.7003 6.3Z" stroke="white" stroke-width="4" stroke-linecap="round" stroke-linejoin="round"/>
</g>
<defs>
<clipPath id="clip0_58279_882">
<rect width="24" height="24" fill="white"/>
</clipPath>
</defs>
</svg>
