<svg width="20" height="20" viewBox="0 0 20 20" fill="none" xmlns="http://www.w3.org/2000/svg">
<path d="M2.83366 13.6667L0.916992 11.7917C0.750326 11.625 0.666992 11.4305 0.666992 11.2083C0.666992 10.9861 0.750326 10.7917 0.916992 10.625C2.13921 9.30555 3.54894 8.31596 5.14616 7.65624C6.74338 6.99652 8.36144 6.66666 10.0003 6.66666C11.6392 6.66666 13.2538 6.99652 14.8441 7.65624C16.4344 8.31596 17.8475 9.30555 19.0837 10.625C19.2503 10.7917 19.3337 10.9861 19.3337 11.2083C19.3337 11.4305 19.2503 11.625 19.0837 11.7917L17.167 13.6667C17.0142 13.8194 16.8371 13.9028 16.6357 13.9167C16.4344 13.9305 16.2503 13.875 16.0837 13.75L13.667 11.9167C13.5559 11.8333 13.4725 11.7361 13.417 11.625C13.3614 11.5139 13.3337 11.3889 13.3337 11.25V8.87499C12.8059 8.70832 12.2642 8.57638 11.7087 8.47916C11.1531 8.38193 10.5837 8.33332 10.0003 8.33332C9.41699 8.33332 8.84755 8.38193 8.29199 8.47916C7.73644 8.57638 7.19477 8.70832 6.66699 8.87499V11.25C6.66699 11.3889 6.63921 11.5139 6.58366 11.625C6.5281 11.7361 6.44477 11.8333 6.33366 11.9167L3.91699 13.75C3.75033 13.875 3.5663 13.9305 3.36491 13.9167C3.16352 13.9028 2.98644 13.8194 2.83366 13.6667ZM5.00033 9.54166C4.59755 9.74999 4.20866 9.98957 3.83366 10.2604C3.45866 10.5312 3.06977 10.8333 2.66699 11.1667L3.50033 12L5.00033 10.8333V9.54166ZM15.0003 9.58332V10.8333L16.5003 12L17.3337 11.2083C16.9309 10.8472 16.542 10.5347 16.167 10.2708C15.792 10.0069 15.4031 9.77777 15.0003 9.58332Z" fill="white"/>
</svg>
